<?xml version="1.0" encoding="UTF-8" standalone="no"?>
<!DOCTYPE svg PUBLIC "-//W3C//DTD SVG 1.1//EN" "http://www.w3.org/Graphics/SVG/1.1/DTD/svg11.dtd">
<svg xmlns="http://www.w3.org/2000/svg" xmlns:xlink="http://www.w3.org/1999/xlink" version="1.1" width="1200pt" height="1200pt" viewBox="0 0 1200 1200">
<g enable-background="new">
<path d="M 0 0 L 1200 0 L 1200 1200 L 0 1200 Z " fill="#5f6273"/>
<path transform="matrix(1200,0,0,1200,0,0)" d="M 0 0 L 1 0 L 1 1 L 0 1 Z " fill="#ffffff"/>
<path transform="matrix(6.513992,0,0,6.472779,227.09662,321.38166)" d="M 99 99 L 1 99 L 1 1 L 99 1 L 99 99 Z " fill="#acabbb" fill-opacity=".498611"/>
<path transform="matrix(35.56736,0,0,35.567304,208.75902,208.75962)" d="M 2 2 L 20 2 L 20 20 L 2 20 L 2 2 Z M 3 3 L 19 3 L 19 19 L 3 19 L 3 3 Z " fill-rule="evenodd"/>
<path transform="matrix(1,0,0,1,332.6335,341.04826)" d="M 12.066747 120.33228 L 40.892866 120.33228 L 40.892866 80.444988 L 77.09311 80.444988 L 77.09311 56.311487 L 40.892866 56.311487 L 40.892866 35.529867 L 83.12648 35.529867 L 83.12648 11.396372 L 12.066747 11.396372 Z M 129.23914 120.33228 L 158.06526 120.33228 L 158.06526 11.396372 L 129.23914 11.396372 Z M 230.32254 120.33228 L 259.14866 120.33228 L 259.14866 35.529867 L 287.97477 35.529867 L 287.97477 11.396372 L 201.49642 11.396372 L 201.49642 35.529867 L 230.32254 35.529867 Z M 352.18757 120.33228 L 381.01368 120.33228 L 381.01368 35.529867 L 409.83979 35.529867 L 409.83979 11.396372 L 323.36146 11.396372 L 323.36146 35.529867 L 352.18757 35.529867 Z M 487.79527 122.34341 C 514.94546 122.34341 530.3641 105.91923 530.3641 87.48392 C 530.3641 72.40048 522.6547 63.015237 509.07966 57.652238 L 495.83976 52.456834 C 485.95173 48.602178 479.75077 46.758646 479.75077 41.56324 C 479.75077 36.703023 484.1082 34.189119 491.14714 34.189119 C 499.19163 34.189119 505.56019 36.870618 512.9343 42.06602 L 527.34738 23.9659 C 517.29177 14.077872 503.54908 9.385248 491.14714 9.385248 C 467.34883 9.385248 450.58946 24.636275 450.58946 43.239179 C 450.58946 58.992986 460.81266 68.88101 472.54423 73.57364 L 486.11933 79.27183 C 495.33699 82.958889 500.86756 84.63483 500.86756 89.83023 C 500.86756 94.690448 497.1805 97.539539 488.46565 97.539539 C 480.42115 97.539539 470.70069 93.182109 462.9914 86.98113 L 446.5672 106.757198 C 458.29878 117.3156 474.05259 122.34341 487.79527 122.34341 Z "/>
<path transform="matrix(1,0,0,1,428.05775,490.04884)" d="M 163.62384 353.38877 C 251.72899 353.38877 292.3929 303.04298 292.3929 195.57407 L 292.3929 32.918409 L 212.03327 32.918409 L 212.03327 205.25595 C 212.03327 261.4109 196.54225 281.74284 163.62384 281.74284 C 130.70545 281.74284 116.18261 261.4109 116.18261 205.25595 L 116.18261 32.918409 L 32.918409 32.918409 L 32.918409 195.57407 C 32.918409 303.04298 75.5187 353.38877 163.62384 353.38877 Z "/>
</g>
</svg>
